<svg width="32" height="31" viewBox="0 0 32 31" fill="none" xmlns="http://www.w3.org/2000/svg">
<path d="M21.0086 18.1328H19.9869L19.6248 17.7953C20.433 16.8877 21.0237 15.8187 21.3545 14.6648C21.6854 13.5108 21.7483 12.3005 21.5388 11.1203C20.931 7.64528 17.9308 4.87028 14.3098 4.44528C13.0368 4.28961 11.7439 4.4175 10.5299 4.81914C9.31585 5.22079 8.213 5.88555 7.30568 6.76257C6.39836 7.63959 5.71062 8.70561 5.2951 9.87906C4.87957 11.0525 4.74727 12.3023 4.90832 13.5328C5.348 17.0328 8.21889 19.9328 11.814 20.5203C13.0349 20.7228 14.2871 20.662 15.481 20.3422C16.6748 20.0224 17.7807 19.4515 18.7196 18.6703L19.0688 19.0203V20.0078L24.5648 25.3203C25.095 25.8328 25.9615 25.8328 26.4917 25.3203C27.0219 24.8078 27.0219 23.9703 26.4917 23.4578L21.0086 18.1328ZM13.2494 18.1328C10.0294 18.1328 7.43004 15.6203 7.43004 12.5078C7.43004 9.39528 10.0294 6.88278 13.2494 6.88278C16.4695 6.88278 19.0688 9.39528 19.0688 12.5078C19.0688 15.6203 16.4695 18.1328 13.2494 18.1328Z" fill="#909193"/>
</svg>
